<svg class="main-svg" xmlns="http://www.w3.org/2000/svg" xmlns:xlink="http://www.w3.org/1999/xlink" width="800" height="600" style="" viewBox="0 0 800 600"><rect x="0" y="0" width="800" height="600" style="fill: rgb(255, 255, 255); fill-opacity: 1;"/><defs id="defs-48278f"><g class="clips"><clipPath id="clip48278fxyplot" class="plotclip"><rect width="640" height="178.50000000000003"/></clipPath><clipPath id="clip48278fx2y2plot" class="plotclip"><rect width="640" height="178.5"/></clipPath><clipPath class="axesclip" id="clip48278fx"><rect x="80" y="0" width="640" height="600"/></clipPath><clipPath class="axesclip" id="clip48278fy"><rect x="0" y="100" width="800" height="178.50000000000003"/></clipPath><clipPath class="axesclip" id="clip48278fxy"><rect x="80" y="100" width="640" height="178.50000000000003"/></clipPath><clipPath class="axesclip" id="clip48278fy2"><rect x="0" y="341.5" width="800" height="178.5"/></clipPath><clipPath class="axesclip" id="clip48278fxy2"><rect x="80" y="341.5" width="640" height="178.5"/></clipPath><clipPath class="axesclip" id="clip48278fx2"><rect x="80" y="0" width="640" height="600"/></clipPath><clipPath class="axesclip" id="clip48278fx2y"><rect x="80" y="100" width="640" height="178.50000000000003"/></clipPath><clipPath class="axesclip" id="clip48278fx2y2"><rect x="80" y="341.5" width="640" height="178.5"/></clipPath></g><g class="gradients"/><g class="patterns"/></defs><g class="bglayer"/><g class="layer-below"><g class="imagelayer"/><g class="shapelayer"/></g><g class="cartesianlayer"><g class="subplot xy"><g class="layer-subplot"><g class="shapelayer"/><g class="imagelayer"/></g><g class="minor-gridlayer"><g class="x"/><g class="y"/></g><g class="gridlayer"><g class="x"/><g class="y"/></g><g class="zerolinelayer"/><path class="xlines-below"/><path class="ylines-below"/><g class="overlines-below"/><g class="xaxislayer-below"/><g class="yaxislayer-below"/><g class="overaxes-below"/><g class="plot" transform="translate(80,100)" clip-path="url(#clip48278fxyplot)"><g class="scatterlayer mlayer"><g class="trace scatter traceb7a456" style="stroke-miterlimit: 2; opacity: 1;"><g class="fills"/><g class="errorbars"/><g class="lines"><path class="js-line" d="M38.25,125.88L78.5,100.32L118.75,100.32L159,100.32L199.25,74.77L239.5,61.99L279.75,100.32L320,87.55L360.25,113.1L400.5,100.32L440.75,61.99L481,113.1L521.25,100.32L561.5,74.77L601.75,23.66" style="vector-effect: non-scaling-stroke; fill: none; stroke: rgb(128, 128, 128); stroke-opacity: 1; stroke-width: 2px; opacity: 1;"/></g><g class="points"><path class="point plotly-customdata" transform="translate(38.25,125.88)" d="M5,0A5,5 0 1,1 0,-5A5,5 0 0,1 5,0Z" style="opacity: 0.7; stroke-width: 0px; fill: rgb(0, 128, 0); fill-opacity: 1;"/><path class="point plotly-customdata" transform="translate(78.5,100.32)" d="M5,0A5,5 0 1,1 0,-5A5,5 0 0,1 5,0Z" style="opacity: 0.7; stroke-width: 0px; fill: rgb(0, 128, 0); fill-opacity: 1;"/><path class="point plotly-customdata" transform="translate(118.75,100.32)" d="M5,0A5,5 0 1,1 0,-5A5,5 0 0,1 5,0Z" style="opacity: 0.7; stroke-width: 0px; fill: rgb(0, 128, 0); fill-opacity: 1;"/><path class="point plotly-customdata" transform="translate(159,100.32)" d="M5,0A5,5 0 1,1 0,-5A5,5 0 0,1 5,0Z" style="opacity: 0.7; stroke-width: 0px; fill: rgb(0, 128, 0); fill-opacity: 1;"/><path class="point plotly-customdata" transform="translate(199.25,74.77)" d="M5,0A5,5 0 1,1 0,-5A5,5 0 0,1 5,0Z" style="opacity: 0.7; stroke-width: 0px; fill: rgb(0, 128, 0); fill-opacity: 1;"/><path class="point plotly-customdata" transform="translate(239.5,61.99)" d="M5,0A5,5 0 1,1 0,-5A5,5 0 0,1 5,0Z" style="opacity: 0.7; stroke-width: 0px; fill: rgb(0, 128, 0); fill-opacity: 1;"/><path class="point plotly-customdata" transform="translate(279.75,100.32)" d="M5,0A5,5 0 1,1 0,-5A5,5 0 0,1 5,0Z" style="opacity: 0.7; stroke-width: 0px; fill: rgb(0, 128, 0); fill-opacity: 1;"/><path class="point plotly-customdata" transform="translate(320,87.55)" d="M5,0A5,5 0 1,1 0,-5A5,5 0 0,1 5,0Z" style="opacity: 0.7; stroke-width: 0px; fill: rgb(0, 128, 0); fill-opacity: 1;"/><path class="point plotly-customdata" transform="translate(360.25,113.1)" d="M5,0A5,5 0 1,1 0,-5A5,5 0 0,1 5,0Z" style="opacity: 0.7; stroke-width: 0px; fill: rgb(0, 128, 0); fill-opacity: 1;"/><path class="point plotly-customdata" transform="translate(400.5,100.32)" d="M5,0A5,5 0 1,1 0,-5A5,5 0 0,1 5,0Z" style="opacity: 0.7; stroke-width: 0px; fill: rgb(0, 128, 0); fill-opacity: 1;"/><path class="point plotly-customdata" transform="translate(440.75,61.99)" d="M5,0A5,5 0 1,1 0,-5A5,5 0 0,1 5,0Z" style="opacity: 0.7; stroke-width: 0px; fill: rgb(0, 128, 0); fill-opacity: 1;"/><path class="point plotly-customdata" transform="translate(481,113.1)" d="M5,0A5,5 0 1,1 0,-5A5,5 0 0,1 5,0Z" style="opacity: 0.7; stroke-width: 0px; fill: rgb(0, 128, 0); fill-opacity: 1;"/><path class="point plotly-customdata" transform="translate(521.25,100.32)" d="M5,0A5,5 0 1,1 0,-5A5,5 0 0,1 5,0Z" style="opacity: 0.7; stroke-width: 0px; fill: rgb(0, 128, 0); fill-opacity: 1;"/><path class="point plotly-customdata" transform="translate(561.5,74.77)" d="M5,0A5,5 0 1,1 0,-5A5,5 0 0,1 5,0Z" style="opacity: 0.7; stroke-width: 0px; fill: rgb(0, 128, 0); fill-opacity: 1;"/><path class="point plotly-customdata" transform="translate(601.75,23.66)" d="M5,0A5,5 0 1,1 0,-5A5,5 0 0,1 5,0Z" style="opacity: 0.7; stroke-width: 0px; fill: rgb(0, 128, 0); fill-opacity: 1;"/></g><g class="text"/></g><g class="trace scatter trace203bc9" style="stroke-miterlimit: 2; opacity: 1;"><g class="fills"/><g class="errorbars"/><g class="lines"><path class="js-line" d="M38.25,169.58L601.75,169.58" style="vector-effect: non-scaling-stroke; fill: none; stroke: rgb(0, 0, 0); stroke-opacity: 1; stroke-width: 1px; opacity: 1; stroke-dasharray: 9px, 9px;"/></g><g class="points"/><g class="text"/></g><g class="trace scatter traced97c43" style="stroke-miterlimit: 2; opacity: 1;"><g class="fills"/><g class="errorbars"/><g class="lines"><path class="js-line" d="M38.25,8.93L601.75,8.93" style="vector-effect: non-scaling-stroke; fill: none; stroke: rgb(0, 0, 0); stroke-opacity: 1; stroke-width: 1px; opacity: 1; stroke-dasharray: 9px, 9px;"/></g><g class="points"/><g class="text"/></g><g class="trace scatter trace29566a" style="stroke-miterlimit: 2; opacity: 1;"><g class="fills"/><g class="errorbars"/><g class="lines"><path class="js-line" d="M38.25,89.25L601.75,89.25" style="vector-effect: non-scaling-stroke; fill: none; stroke: rgb(0, 0, 0); stroke-opacity: 1; stroke-width: 1px; opacity: 1;"/></g><g class="points"/><g class="text"/></g></g></g><g class="overplot"/><path class="xlines-above crisp" d="M79,279H720" style="fill: none; stroke-width: 1px; stroke: rgb(36, 36, 36); stroke-opacity: 1;"/><path class="ylines-above crisp" d="M79.5,100V278.5" style="fill: none; stroke-width: 1px; stroke: rgb(36, 36, 36); stroke-opacity: 1;"/><g class="overlines-above"/><g class="xaxislayer-above"><path class="xtick ticks crisp" d="M0,279.5v5" transform="translate(158.5,0)" style="stroke: rgb(68, 68, 68); stroke-opacity: 1; stroke-width: 1px;"/><path class="xtick ticks crisp" d="M0,279.5v5" transform="translate(239,0)" style="stroke: rgb(68, 68, 68); stroke-opacity: 1; stroke-width: 1px;"/><path class="xtick ticks crisp" d="M0,279.5v5" transform="translate(319.5,0)" style="stroke: rgb(68, 68, 68); stroke-opacity: 1; stroke-width: 1px;"/><path class="xtick ticks crisp" d="M0,279.5v5" transform="translate(400,0)" style="stroke: rgb(68, 68, 68); stroke-opacity: 1; stroke-width: 1px;"/><path class="xtick ticks crisp" d="M0,279.5v5" transform="translate(480.5,0)" style="stroke: rgb(68, 68, 68); stroke-opacity: 1; stroke-width: 1px;"/><path class="xtick ticks crisp" d="M0,279.5v5" transform="translate(561,0)" style="stroke: rgb(68, 68, 68); stroke-opacity: 1; stroke-width: 1px;"/><path class="xtick ticks crisp" d="M0,279.5v5" transform="translate(641.5,0)" style="stroke: rgb(68, 68, 68); stroke-opacity: 1; stroke-width: 1px;"/></g><g class="yaxislayer-above"><path class="ytick ticks crisp" d="M79,0h-5" transform="translate(0,276.99)" style="stroke: rgb(68, 68, 68); stroke-opacity: 1; stroke-width: 1px;"/><path class="ytick ticks crisp" d="M79,0h-5" transform="translate(0,213.1)" style="stroke: rgb(68, 68, 68); stroke-opacity: 1; stroke-width: 1px;"/><path class="ytick ticks crisp" d="M79,0h-5" transform="translate(0,149.22)" style="stroke: rgb(68, 68, 68); stroke-opacity: 1; stroke-width: 1px;"/><g class="ytick"><text text-anchor="end" x="71.6" y="4.199999999999999" transform="translate(0,276.99)" style="font-family: 'Open Sans', verdana, arial, sans-serif; font-size: 12px; fill: rgb(36, 36, 36); fill-opacity: 1; white-space: pre; opacity: 1;">35</text></g><g class="ytick"><text text-anchor="end" x="71.6" y="4.199999999999999" style="font-family: 'Open Sans', verdana, arial, sans-serif; font-size: 12px; fill: rgb(36, 36, 36); fill-opacity: 1; white-space: pre; opacity: 1;" transform="translate(0,213.1)">40</text></g><g class="ytick"><text text-anchor="end" x="71.6" y="4.199999999999999" style="font-family: 'Open Sans', verdana, arial, sans-serif; font-size: 12px; fill: rgb(36, 36, 36); fill-opacity: 1; white-space: pre; opacity: 1;" transform="translate(0,149.22)">45</text></g></g><g class="overaxes-above"/></g><g class="subplot x2y2"><g class="layer-subplot"><g class="shapelayer"/><g class="imagelayer"/></g><g class="minor-gridlayer"><g class="x2"/><g class="y2"/></g><g class="gridlayer"><g class="x2"/><g class="y2"/></g><g class="zerolinelayer"/><path class="xlines-below"/><path class="ylines-below"/><g class="overlines-below"/><g class="xaxislayer-below"/><g class="yaxislayer-below"/><g class="overaxes-below"/><g class="plot" transform="translate(80,341.5)" clip-path="url(#clip48278fx2y2plot)"><g class="scatterlayer mlayer"><g class="trace scatter trace0c1ad7" style="stroke-miterlimit: 2; opacity: 1;"><g class="fills"/><g class="errorbars"/><g class="lines"><path class="js-line" d="M78.5,112.42L118.75,163.32L159,163.32L199.25,112.42L239.5,137.87L279.75,86.97L320,137.87L360.25,112.42L400.5,137.87L440.75,86.97L481,61.52L521.25,137.87L561.5,112.42L601.75,61.52" style="vector-effect: non-scaling-stroke; fill: none; stroke: rgb(128, 128, 128); stroke-opacity: 1; stroke-width: 2px; opacity: 1;"/></g><g class="points"><path class="point plotly-customdata" transform="translate(78.5,112.42)" d="M5,0A5,5 0 1,1 0,-5A5,5 0 0,1 5,0Z" style="opacity: 0.7; stroke-width: 0px; fill: rgb(0, 128, 0); fill-opacity: 1;"/><path class="point plotly-customdata" transform="translate(118.75,163.32)" d="M5,0A5,5 0 1,1 0,-5A5,5 0 0,1 5,0Z" style="opacity: 0.7; stroke-width: 0px; fill: rgb(0, 128, 0); fill-opacity: 1;"/><path class="point plotly-customdata" transform="translate(159,163.32)" d="M5,0A5,5 0 1,1 0,-5A5,5 0 0,1 5,0Z" style="opacity: 0.7; stroke-width: 0px; fill: rgb(0, 128, 0); fill-opacity: 1;"/><path class="point plotly-customdata" transform="translate(199.25,112.42)" d="M5,0A5,5 0 1,1 0,-5A5,5 0 0,1 5,0Z" style="opacity: 0.7; stroke-width: 0px; fill: rgb(0, 128, 0); fill-opacity: 1;"/><path class="point plotly-customdata" transform="translate(239.5,137.87)" d="M5,0A5,5 0 1,1 0,-5A5,5 0 0,1 5,0Z" style="opacity: 0.7; stroke-width: 0px; fill: rgb(0, 128, 0); fill-opacity: 1;"/><path class="point plotly-customdata" transform="translate(279.75,86.97)" d="M5,0A5,5 0 1,1 0,-5A5,5 0 0,1 5,0Z" style="opacity: 0.7; stroke-width: 0px; fill: rgb(0, 128, 0); fill-opacity: 1;"/><path class="point plotly-customdata" transform="translate(320,137.87)" d="M5,0A5,5 0 1,1 0,-5A5,5 0 0,1 5,0Z" style="opacity: 0.7; stroke-width: 0px; fill: rgb(0, 128, 0); fill-opacity: 1;"/><path class="point plotly-customdata" transform="translate(360.25,112.42)" d="M5,0A5,5 0 1,1 0,-5A5,5 0 0,1 5,0Z" style="opacity: 0.7; stroke-width: 0px; fill: rgb(0, 128, 0); fill-opacity: 1;"/><path class="point plotly-customdata" transform="translate(400.5,137.87)" d="M5,0A5,5 0 1,1 0,-5A5,5 0 0,1 5,0Z" style="opacity: 0.7; stroke-width: 0px; fill: rgb(0, 128, 0); fill-opacity: 1;"/><path class="point plotly-customdata" transform="translate(440.75,86.97)" d="M5,0A5,5 0 1,1 0,-5A5,5 0 0,1 5,0Z" style="opacity: 0.7; stroke-width: 0px; fill: rgb(0, 128, 0); fill-opacity: 1;"/><path class="point plotly-customdata" transform="translate(481,61.52)" d="M5,0A5,5 0 1,1 0,-5A5,5 0 0,1 5,0Z" style="opacity: 0.7; stroke-width: 0px; fill: rgb(0, 128, 0); fill-opacity: 1;"/><path class="point plotly-customdata" transform="translate(521.25,137.87)" d="M5,0A5,5 0 1,1 0,-5A5,5 0 0,1 5,0Z" style="opacity: 0.7; stroke-width: 0px; fill: rgb(0, 128, 0); fill-opacity: 1;"/><path class="point plotly-customdata" transform="translate(561.5,112.42)" d="M5,0A5,5 0 1,1 0,-5A5,5 0 0,1 5,0Z" style="opacity: 0.7; stroke-width: 0px; fill: rgb(0, 128, 0); fill-opacity: 1;"/><path class="point plotly-customdata" transform="translate(601.75,61.52)" d="M5,0A5,5 0 1,1 0,-5A5,5 0 0,1 5,0Z" style="opacity: 0.7; stroke-width: 0px; fill: rgb(0, 128, 0); fill-opacity: 1;"/></g><g class="text"/></g><g class="trace scatter trace7f596c" style="stroke-miterlimit: 2; opacity: 1;"><g class="fills"/><g class="errorbars"/><g class="lines"><path class="js-line" d="M38.25,8.92L601.75,8.92" style="vector-effect: non-scaling-stroke; fill: none; stroke: rgb(0, 0, 0); stroke-opacity: 1; stroke-width: 1px; opacity: 1; stroke-dasharray: 9px, 9px;"/></g><g class="points"/><g class="text"/></g><g class="trace scatter trace37587f" style="stroke-miterlimit: 2; opacity: 1;"><g class="fills"/><g class="errorbars"/><g class="lines"><path class="js-line" d="M38.25,116.06L601.75,116.06" style="vector-effect: non-scaling-stroke; fill: none; stroke: rgb(0, 0, 0); stroke-opacity: 1; stroke-width: 1px; opacity: 1;"/></g><g class="points"/><g class="text"/></g></g></g><g class="overplot"/><path class="xlines-above crisp" d="M79,520.5H720" style="fill: none; stroke-width: 1px; stroke: rgb(36, 36, 36); stroke-opacity: 1;"/><path class="ylines-above crisp" d="M79.5,341.5V520" style="fill: none; stroke-width: 1px; stroke: rgb(36, 36, 36); stroke-opacity: 1;"/><g class="overlines-above"/><g class="xaxislayer-above"><path class="x2tick ticks crisp" d="M0,521v5" transform="translate(158.5,0)" style="stroke: rgb(68, 68, 68); stroke-opacity: 1; stroke-width: 1px;"/><path class="x2tick ticks crisp" d="M0,521v5" transform="translate(239,0)" style="stroke: rgb(68, 68, 68); stroke-opacity: 1; stroke-width: 1px;"/><path class="x2tick ticks crisp" d="M0,521v5" transform="translate(319.5,0)" style="stroke: rgb(68, 68, 68); stroke-opacity: 1; stroke-width: 1px;"/><path class="x2tick ticks crisp" d="M0,521v5" transform="translate(400,0)" style="stroke: rgb(68, 68, 68); stroke-opacity: 1; stroke-width: 1px;"/><path class="x2tick ticks crisp" d="M0,521v5" transform="translate(480.5,0)" style="stroke: rgb(68, 68, 68); stroke-opacity: 1; stroke-width: 1px;"/><path class="x2tick ticks crisp" d="M0,521v5" transform="translate(561,0)" style="stroke: rgb(68, 68, 68); stroke-opacity: 1; stroke-width: 1px;"/><path class="x2tick ticks crisp" d="M0,521v5" transform="translate(641.5,0)" style="stroke: rgb(68, 68, 68); stroke-opacity: 1; stroke-width: 1px;"/><g class="x2tick"><text text-anchor="middle" x="0" y="540.4" transform="translate(158.5,0)" style="font-family: 'Open Sans', verdana, arial, sans-serif; font-size: 12px; fill: rgb(36, 36, 36); fill-opacity: 1; white-space: pre; opacity: 1;">2</text></g><g class="x2tick"><text text-anchor="middle" x="0" y="540.4" style="font-family: 'Open Sans', verdana, arial, sans-serif; font-size: 12px; fill: rgb(36, 36, 36); fill-opacity: 1; white-space: pre; opacity: 1;" transform="translate(239,0)">4</text></g><g class="x2tick"><text text-anchor="middle" x="0" y="540.4" style="font-family: 'Open Sans', verdana, arial, sans-serif; font-size: 12px; fill: rgb(36, 36, 36); fill-opacity: 1; white-space: pre; opacity: 1;" transform="translate(319.5,0)">6</text></g><g class="x2tick"><text text-anchor="middle" x="0" y="540.4" style="font-family: 'Open Sans', verdana, arial, sans-serif; font-size: 12px; fill: rgb(36, 36, 36); fill-opacity: 1; white-space: pre; opacity: 1;" transform="translate(400,0)">8</text></g><g class="x2tick"><text text-anchor="middle" x="0" y="540.4" style="font-family: 'Open Sans', verdana, arial, sans-serif; font-size: 12px; fill: rgb(36, 36, 36); fill-opacity: 1; white-space: pre; opacity: 1;" transform="translate(480.5,0)">10</text></g><g class="x2tick"><text text-anchor="middle" x="0" y="540.4" style="font-family: 'Open Sans', verdana, arial, sans-serif; font-size: 12px; fill: rgb(36, 36, 36); fill-opacity: 1; white-space: pre; opacity: 1;" transform="translate(561,0)">12</text></g><g class="x2tick"><text text-anchor="middle" x="0" y="540.4" style="font-family: 'Open Sans', verdana, arial, sans-serif; font-size: 12px; fill: rgb(36, 36, 36); fill-opacity: 1; white-space: pre; opacity: 1;" transform="translate(641.5,0)">14</text></g></g><g class="yaxislayer-above"><path class="y2tick ticks crisp" d="M79,0h-5" transform="translate(0,504.82)" style="stroke: rgb(68, 68, 68); stroke-opacity: 1; stroke-width: 1px;"/><path class="y2tick ticks crisp" d="M79,0h-5" transform="translate(0,453.92)" style="stroke: rgb(68, 68, 68); stroke-opacity: 1; stroke-width: 1px;"/><path class="y2tick ticks crisp" d="M79,0h-5" transform="translate(0,403.02)" style="stroke: rgb(68, 68, 68); stroke-opacity: 1; stroke-width: 1px;"/><path class="y2tick ticks crisp" d="M79,0h-5" transform="translate(0,352.12)" style="stroke: rgb(68, 68, 68); stroke-opacity: 1; stroke-width: 1px;"/><g class="y2tick"><text text-anchor="end" x="71.6" y="4.199999999999999" transform="translate(0,504.82)" style="font-family: 'Open Sans', verdana, arial, sans-serif; font-size: 12px; fill: rgb(36, 36, 36); fill-opacity: 1; white-space: pre; opacity: 1;">0</text></g><g class="y2tick"><text text-anchor="end" x="71.6" y="4.199999999999999" style="font-family: 'Open Sans', verdana, arial, sans-serif; font-size: 12px; fill: rgb(36, 36, 36); fill-opacity: 1; white-space: pre; opacity: 1;" transform="translate(0,453.92)">2</text></g><g class="y2tick"><text text-anchor="end" x="71.6" y="4.199999999999999" style="font-family: 'Open Sans', verdana, arial, sans-serif; font-size: 12px; fill: rgb(36, 36, 36); fill-opacity: 1; white-space: pre; opacity: 1;" transform="translate(0,403.02)">4</text></g><g class="y2tick"><text text-anchor="end" x="71.6" y="4.199999999999999" style="font-family: 'Open Sans', verdana, arial, sans-serif; font-size: 12px; fill: rgb(36, 36, 36); fill-opacity: 1; white-space: pre; opacity: 1;" transform="translate(0,352.12)">6</text></g></g><g class="overaxes-above"/></g></g><g class="polarlayer"/><g class="smithlayer"/><g class="ternarylayer"/><g class="geolayer"/><g class="funnelarealayer"/><g class="pielayer"/><g class="iciclelayer"/><g class="treemaplayer"/><g class="sunburstlayer"/><g class="glimages"/><defs id="topdefs-48278f"><g class="clips"/></defs><g class="layer-above"><g class="imagelayer"/><g class="shapelayer"/></g><g class="infolayer"><g class="g-gtitle"><text class="gtitle" x="40" y="50" text-anchor="start" dy="0em" style="font-family: 'Open Sans', verdana, arial, sans-serif; font-size: 17px; fill: rgb(36, 36, 36); opacity: 1; font-weight: normal; white-space: pre;">Individuals chart</text></g><g class="g-xtitle"/><g class="g-x2title"/><g class="g-ytitle"><text class="ytitle" transform="rotate(-90,31.528125000000003,189.25)" x="31.528125000000003" y="189.25" text-anchor="middle" style="font-family: 'Open Sans', verdana, arial, sans-serif; font-size: 14px; fill: rgb(36, 36, 36); opacity: 1; font-weight: normal; white-space: pre;">Values</text></g><g class="g-y2title"><text class="y2title" transform="rotate(-90,39.16875,430.75)" x="39.16875" y="430.75" text-anchor="middle" style="font-family: 'Open Sans', verdana, arial, sans-serif; font-size: 14px; fill: rgb(36, 36, 36); opacity: 1; font-weight: normal; white-space: pre;">Moving range</text></g></g></svg>