<svg class="main-svg" xmlns="http://www.w3.org/2000/svg" xmlns:xlink="http://www.w3.org/1999/xlink" width="800" height="600" style="" viewBox="0 0 800 600"><rect x="0" y="0" width="800" height="600" style="fill: rgb(255, 255, 255); fill-opacity: 1;"/><defs id="defs-8d5e22"><g class="clips"><clipPath id="clip8d5e22xyplot" class="plotclip"><rect width="640" height="178.50000000000003"/></clipPath><clipPath id="clip8d5e22x2y2plot" class="plotclip"><rect width="640" height="178.5"/></clipPath><clipPath class="axesclip" id="clip8d5e22x"><rect x="80" y="0" width="640" height="600"/></clipPath><clipPath class="axesclip" id="clip8d5e22y"><rect x="0" y="100" width="800" height="178.50000000000003"/></clipPath><clipPath class="axesclip" id="clip8d5e22xy"><rect x="80" y="100" width="640" height="178.50000000000003"/></clipPath><clipPath class="axesclip" id="clip8d5e22y2"><rect x="0" y="341.5" width="800" height="178.5"/></clipPath><clipPath class="axesclip" id="clip8d5e22xy2"><rect x="80" y="341.5" width="640" height="178.5"/></clipPath><clipPath class="axesclip" id="clip8d5e22x2"><rect x="80" y="0" width="640" height="600"/></clipPath><clipPath class="axesclip" id="clip8d5e22x2y"><rect x="80" y="100" width="640" height="178.50000000000003"/></clipPath><clipPath class="axesclip" id="clip8d5e22x2y2"><rect x="80" y="341.5" width="640" height="178.5"/></clipPath></g><g class="gradients"/><g class="patterns"/></defs><g class="bglayer"/><g class="layer-below"><g class="imagelayer"/><g class="shapelayer"/></g><g class="cartesianlayer"><g class="subplot xy"><g class="layer-subplot"><g class="shapelayer"/><g class="imagelayer"/></g><g class="minor-gridlayer"><g class="x"/><g class="y"/></g><g class="gridlayer"><g class="x"/><g class="y"/></g><g class="zerolinelayer"/><path class="xlines-below"/><path class="ylines-below"/><g class="overlines-below"/><g class="xaxislayer-below"/><g class="yaxislayer-below"/><g class="overaxes-below"/><g class="plot" transform="translate(80,100)" clip-path="url(#clip8d5e22xyplot)"><g class="scatterlayer mlayer"><g class="trace scatter tracea2ffdf" style="stroke-miterlimit: 2; opacity: 1;"><g class="fills"/><g class="errorbars"/><g class="lines"><path class="js-line" d="M38.25,93.08L62.75,81.59L87.25,89.25L111.75,77.76L136.25,91.8L160.75,93.08L185.25,107.13L209.75,107.13L234.25,90.53L258.75,89.25L283.25,84.14L307.75,90.53L332.25,109.68L356.75,68.82L381.25,15.17L405.75,24.12L430.25,127.56L454.75,130.12L479.25,163.32L503.75,125.01L528.25,98.19L552.75,86.7L577.25,130.12L601.75,114.79" style="vector-effect: non-scaling-stroke; fill: none; stroke: rgb(128, 128, 128); stroke-opacity: 1; stroke-width: 2px; opacity: 1;"/></g><g class="points"><path class="point plotly-customdata" transform="translate(38.25,93.08)" d="M5,0A5,5 0 1,1 0,-5A5,5 0 0,1 5,0Z" style="opacity: 0.7; stroke-width: 0px; fill: rgb(0, 128, 0); fill-opacity: 1;"/><path class="point plotly-customdata" transform="translate(62.75,81.59)" d="M5,0A5,5 0 1,1 0,-5A5,5 0 0,1 5,0Z" style="opacity: 0.7; stroke-width: 0px; fill: rgb(0, 128, 0); fill-opacity: 1;"/><path class="point plotly-customdata" transform="translate(87.25,89.25)" d="M5,0A5,5 0 1,1 0,-5A5,5 0 0,1 5,0Z" style="opacity: 0.7; stroke-width: 0px; fill: rgb(0, 128, 0); fill-opacity: 1;"/><path class="point plotly-customdata" transform="translate(111.75,77.76)" d="M5,0A5,5 0 1,1 0,-5A5,5 0 0,1 5,0Z" style="opacity: 0.7; stroke-width: 0px; fill: rgb(0, 128, 0); fill-opacity: 1;"/><path class="point plotly-customdata" transform="translate(136.25,91.8)" d="M5,0A5,5 0 1,1 0,-5A5,5 0 0,1 5,0Z" style="opacity: 0.7; stroke-width: 0px; fill: rgb(0, 128, 0); fill-opacity: 1;"/><path class="point plotly-customdata" transform="translate(160.75,93.08)" d="M5,0A5,5 0 1,1 0,-5A5,5 0 0,1 5,0Z" style="opacity: 0.7; stroke-width: 0px; fill: rgb(0, 128, 0); fill-opacity: 1;"/><path class="point plotly-customdata" transform="translate(185.25,107.13)" d="M5,0A5,5 0 1,1 0,-5A5,5 0 0,1 5,0Z" style="opacity: 0.7; stroke-width: 0px; fill: rgb(0, 128, 0); fill-opacity: 1;"/><path class="point plotly-customdata" transform="translate(209.75,107.13)" d="M5,0A5,5 0 1,1 0,-5A5,5 0 0,1 5,0Z" style="opacity: 0.7; stroke-width: 0px; fill: rgb(0, 128, 0); fill-opacity: 1;"/><path class="point plotly-customdata" transform="translate(234.25,90.53)" d="M5,0A5,5 0 1,1 0,-5A5,5 0 0,1 5,0Z" style="opacity: 0.7; stroke-width: 0px; fill: rgb(0, 128, 0); fill-opacity: 1;"/><path class="point plotly-customdata" transform="translate(258.75,89.25)" d="M5,0A5,5 0 1,1 0,-5A5,5 0 0,1 5,0Z" style="opacity: 0.7; stroke-width: 0px; fill: rgb(0, 128, 0); fill-opacity: 1;"/><path class="point plotly-customdata" transform="translate(283.25,84.14)" d="M5,0A5,5 0 1,1 0,-5A5,5 0 0,1 5,0Z" style="opacity: 0.7; stroke-width: 0px; fill: rgb(0, 128, 0); fill-opacity: 1;"/><path class="point plotly-customdata" transform="translate(307.75,90.53)" d="M5,0A5,5 0 1,1 0,-5A5,5 0 0,1 5,0Z" style="opacity: 0.7; stroke-width: 0px; fill: rgb(0, 128, 0); fill-opacity: 1;"/><path class="point plotly-customdata" transform="translate(332.25,109.68)" d="M5,0A5,5 0 1,1 0,-5A5,5 0 0,1 5,0Z" style="opacity: 0.7; stroke-width: 0px; fill: rgb(0, 128, 0); fill-opacity: 1;"/><path class="point plotly-customdata" transform="translate(356.75,68.82)" d="M5,0A5,5 0 1,1 0,-5A5,5 0 0,1 5,0Z" style="opacity: 0.7; stroke-width: 0px; fill: rgb(0, 128, 0); fill-opacity: 1;"/><path class="point plotly-customdata" transform="translate(381.25,15.17)" d="M5,0A5,5 0 1,1 0,-5A5,5 0 0,1 5,0Z" style="opacity: 0.7; stroke-width: 0px; fill: rgb(255, 0, 0); fill-opacity: 1;"/><path class="point plotly-customdata" transform="translate(405.75,24.12)" d="M5,0A5,5 0 1,1 0,-5A5,5 0 0,1 5,0Z" style="opacity: 0.7; stroke-width: 0px; fill: rgb(255, 0, 0); fill-opacity: 1;"/><path class="point plotly-customdata" transform="translate(430.25,127.56)" d="M5,0A5,5 0 1,1 0,-5A5,5 0 0,1 5,0Z" style="opacity: 0.7; stroke-width: 0px; fill: rgb(255, 0, 0); fill-opacity: 1;"/><path class="point plotly-customdata" transform="translate(454.75,130.12)" d="M5,0A5,5 0 1,1 0,-5A5,5 0 0,1 5,0Z" style="opacity: 0.7; stroke-width: 0px; fill: rgb(255, 0, 0); fill-opacity: 1;"/><path class="point plotly-customdata" transform="translate(479.25,163.32)" d="M5,0A5,5 0 1,1 0,-5A5,5 0 0,1 5,0Z" style="opacity: 0.7; stroke-width: 0px; fill: rgb(255, 0, 0); fill-opacity: 1;"/><path class="point plotly-customdata" transform="translate(503.75,125.01)" d="M5,0A5,5 0 1,1 0,-5A5,5 0 0,1 5,0Z" style="opacity: 0.7; stroke-width: 0px; fill: rgb(255, 0, 0); fill-opacity: 1;"/><path class="point plotly-customdata" transform="translate(528.25,98.19)" d="M5,0A5,5 0 1,1 0,-5A5,5 0 0,1 5,0Z" style="opacity: 0.7; stroke-width: 0px; fill: rgb(0, 128, 0); fill-opacity: 1;"/><path class="point plotly-customdata" transform="translate(552.75,86.7)" d="M5,0A5,5 0 1,1 0,-5A5,5 0 0,1 5,0Z" style="opacity: 0.7; stroke-width: 0px; fill: rgb(0, 128, 0); fill-opacity: 1;"/><path class="point plotly-customdata" transform="translate(577.25,130.12)" d="M5,0A5,5 0 1,1 0,-5A5,5 0 0,1 5,0Z" style="opacity: 0.7; stroke-width: 0px; fill: rgb(255, 0, 0); fill-opacity: 1;"/><path class="point plotly-customdata" transform="translate(601.75,114.79)" d="M5,0A5,5 0 1,1 0,-5A5,5 0 0,1 5,0Z" style="opacity: 0.7; stroke-width: 0px; fill: rgb(0, 128, 0); fill-opacity: 1;"/></g><g class="text"/></g><g class="trace scatter trace6d2e79" style="stroke-miterlimit: 2; opacity: 1;"><g class="fills"/><g class="errorbars"/><g class="lines"><path class="js-line" d="M38.25,122.58L601.75,122.58" style="vector-effect: non-scaling-stroke; fill: none; stroke: rgb(0, 0, 0); stroke-opacity: 1; stroke-width: 1px; opacity: 1; stroke-dasharray: 9px, 9px;"/></g><g class="points"/><g class="text"/></g><g class="trace scatter tracef0bb9b" style="stroke-miterlimit: 2; opacity: 1;"><g class="fills"/><g class="errorbars"/><g class="lines"><path class="js-line" d="M38.25,59.96L601.75,59.96" style="vector-effect: non-scaling-stroke; fill: none; stroke: rgb(0, 0, 0); stroke-opacity: 1; stroke-width: 1px; opacity: 1; stroke-dasharray: 9px, 9px;"/></g><g class="points"/><g class="text"/></g><g class="trace scatter trace9211f0" style="stroke-miterlimit: 2; opacity: 1;"><g class="fills"/><g class="errorbars"/><g class="lines"><path class="js-line" d="M38.25,91.27L601.75,91.27" style="vector-effect: non-scaling-stroke; fill: none; stroke: rgb(0, 0, 0); stroke-opacity: 1; stroke-width: 1px; opacity: 1;"/></g><g class="points"/><g class="text"/></g></g></g><g class="overplot"/><path class="xlines-above crisp" d="M79,279H720" style="fill: none; stroke-width: 1px; stroke: rgb(36, 36, 36); stroke-opacity: 1;"/><path class="ylines-above crisp" d="M79.5,100V278.5" style="fill: none; stroke-width: 1px; stroke: rgb(36, 36, 36); stroke-opacity: 1;"/><g class="overlines-above"/><g class="xaxislayer-above"><path class="xtick ticks crisp" d="M0,279.5v5" transform="translate(93.75,0)" style="stroke: rgb(68, 68, 68); stroke-opacity: 1; stroke-width: 1px;"/><path class="xtick ticks crisp" d="M0,279.5v5" transform="translate(216.25,0)" style="stroke: rgb(68, 68, 68); stroke-opacity: 1; stroke-width: 1px;"/><path class="xtick ticks crisp" d="M0,279.5v5" transform="translate(338.75,0)" style="stroke: rgb(68, 68, 68); stroke-opacity: 1; stroke-width: 1px;"/><path class="xtick ticks crisp" d="M0,279.5v5" transform="translate(461.25,0)" style="stroke: rgb(68, 68, 68); stroke-opacity: 1; stroke-width: 1px;"/><path class="xtick ticks crisp" d="M0,279.5v5" transform="translate(583.75,0)" style="stroke: rgb(68, 68, 68); stroke-opacity: 1; stroke-width: 1px;"/><path class="xtick ticks crisp" d="M0,279.5v5" transform="translate(706.25,0)" style="stroke: rgb(68, 68, 68); stroke-opacity: 1; stroke-width: 1px;"/></g><g class="yaxislayer-above"><path class="ytick ticks crisp" d="M79,0h-5" transform="translate(0,241.61)" style="stroke: rgb(68, 68, 68); stroke-opacity: 1; stroke-width: 1px;"/><path class="ytick ticks crisp" d="M79,0h-5" transform="translate(0,177.76)" style="stroke: rgb(68, 68, 68); stroke-opacity: 1; stroke-width: 1px;"/><path class="ytick ticks crisp" d="M79,0h-5" transform="translate(0,113.9)" style="stroke: rgb(68, 68, 68); stroke-opacity: 1; stroke-width: 1px;"/><g class="ytick"><text text-anchor="end" x="71.6" y="4.199999999999999" transform="translate(0,241.61)" style="font-family: 'Open Sans', verdana, arial, sans-serif; font-size: 12px; fill: rgb(36, 36, 36); fill-opacity: 1; white-space: pre; opacity: 1;">50</text></g><g class="ytick"><text text-anchor="end" x="71.6" y="4.199999999999999" style="font-family: 'Open Sans', verdana, arial, sans-serif; font-size: 12px; fill: rgb(36, 36, 36); fill-opacity: 1; white-space: pre; opacity: 1;" transform="translate(0,177.76)">60</text></g><g class="ytick"><text text-anchor="end" x="71.6" y="4.199999999999999" style="font-family: 'Open Sans', verdana, arial, sans-serif; font-size: 12px; fill: rgb(36, 36, 36); fill-opacity: 1; white-space: pre; opacity: 1;" transform="translate(0,113.9)">70</text></g></g><g class="overaxes-above"/></g><g class="subplot x2y2"><g class="layer-subplot"><g class="shapelayer"/><g class="imagelayer"/></g><g class="minor-gridlayer"><g class="x2"/><g class="y2"/></g><g class="gridlayer"><g class="x2"/><g class="y2"/></g><g class="zerolinelayer"/><path class="xlines-below"/><path class="ylines-below"/><g class="overlines-below"/><g class="xaxislayer-below"/><g class="yaxislayer-below"/><g class="overaxes-below"/><g class="plot" transform="translate(80,341.5)" clip-path="url(#clip8d5e22x2y2plot)"><g class="scatterlayer mlayer"><g class="trace scatter trace3fb711" style="stroke-miterlimit: 2; opacity: 1;"><g class="fills"/><g class="errorbars"/><g class="lines"><path class="js-line" d="M38.25,120.82L62.75,112.69L87.25,120.82L111.75,120.82L136.25,112.69L160.75,112.69L185.25,39.55L209.75,120.82L234.25,96.44L258.75,145.2L283.25,80.19L307.75,23.3L332.25,120.82L356.75,104.56L381.25,161.45L405.75,88.31L430.25,55.81L454.75,88.31L479.25,112.69L503.75,72.06L528.25,63.93L552.75,120.82L577.25,15.18L601.75,47.68" style="vector-effect: non-scaling-stroke; fill: none; stroke: rgb(128, 128, 128); stroke-opacity: 1; stroke-width: 2px; opacity: 1;"/></g><g class="points"><path class="point plotly-customdata" transform="translate(38.25,120.82)" d="M5,0A5,5 0 1,1 0,-5A5,5 0 0,1 5,0Z" style="opacity: 0.7; stroke-width: 0px; fill: rgb(0, 128, 0); fill-opacity: 1;"/><path class="point plotly-customdata" transform="translate(62.75,112.69)" d="M5,0A5,5 0 1,1 0,-5A5,5 0 0,1 5,0Z" style="opacity: 0.7; stroke-width: 0px; fill: rgb(0, 128, 0); fill-opacity: 1;"/><path class="point plotly-customdata" transform="translate(87.25,120.82)" d="M5,0A5,5 0 1,1 0,-5A5,5 0 0,1 5,0Z" style="opacity: 0.7; stroke-width: 0px; fill: rgb(0, 128, 0); fill-opacity: 1;"/><path class="point plotly-customdata" transform="translate(111.75,120.82)" d="M5,0A5,5 0 1,1 0,-5A5,5 0 0,1 5,0Z" style="opacity: 0.7; stroke-width: 0px; fill: rgb(0, 128, 0); fill-opacity: 1;"/><path class="point plotly-customdata" transform="translate(136.25,112.69)" d="M5,0A5,5 0 1,1 0,-5A5,5 0 0,1 5,0Z" style="opacity: 0.7; stroke-width: 0px; fill: rgb(0, 128, 0); fill-opacity: 1;"/><path class="point plotly-customdata" transform="translate(160.75,112.69)" d="M5,0A5,5 0 1,1 0,-5A5,5 0 0,1 5,0Z" style="opacity: 0.7; stroke-width: 0px; fill: rgb(0, 128, 0); fill-opacity: 1;"/><path class="point plotly-customdata" transform="translate(185.25,39.55)" d="M5,0A5,5 0 1,1 0,-5A5,5 0 0,1 5,0Z" style="opacity: 0.7; stroke-width: 0px; fill: rgb(0, 128, 0); fill-opacity: 1;"/><path class="point plotly-customdata" transform="translate(209.75,120.82)" d="M5,0A5,5 0 1,1 0,-5A5,5 0 0,1 5,0Z" style="opacity: 0.7; stroke-width: 0px; fill: rgb(0, 128, 0); fill-opacity: 1;"/><path class="point plotly-customdata" transform="translate(234.25,96.44)" d="M5,0A5,5 0 1,1 0,-5A5,5 0 0,1 5,0Z" style="opacity: 0.7; stroke-width: 0px; fill: rgb(0, 128, 0); fill-opacity: 1;"/><path class="point plotly-customdata" transform="translate(258.75,145.2)" d="M5,0A5,5 0 1,1 0,-5A5,5 0 0,1 5,0Z" style="opacity: 0.7; stroke-width: 0px; fill: rgb(0, 128, 0); fill-opacity: 1;"/><path class="point plotly-customdata" transform="translate(283.25,80.19)" d="M5,0A5,5 0 1,1 0,-5A5,5 0 0,1 5,0Z" style="opacity: 0.7; stroke-width: 0px; fill: rgb(0, 128, 0); fill-opacity: 1;"/><path class="point plotly-customdata" transform="translate(307.75,23.3)" d="M5,0A5,5 0 1,1 0,-5A5,5 0 0,1 5,0Z" style="opacity: 0.7; stroke-width: 0px; fill: rgb(255, 0, 0); fill-opacity: 1;"/><path class="point plotly-customdata" transform="translate(332.25,120.82)" d="M5,0A5,5 0 1,1 0,-5A5,5 0 0,1 5,0Z" style="opacity: 0.7; stroke-width: 0px; fill: rgb(0, 128, 0); fill-opacity: 1;"/><path class="point plotly-customdata" transform="translate(356.75,104.56)" d="M5,0A5,5 0 1,1 0,-5A5,5 0 0,1 5,0Z" style="opacity: 0.7; stroke-width: 0px; fill: rgb(0, 128, 0); fill-opacity: 1;"/><path class="point plotly-customdata" transform="translate(381.25,161.45)" d="M5,0A5,5 0 1,1 0,-5A5,5 0 0,1 5,0Z" style="opacity: 0.7; stroke-width: 0px; fill: rgb(0, 128, 0); fill-opacity: 1;"/><path class="point plotly-customdata" transform="translate(405.75,88.31)" d="M5,0A5,5 0 1,1 0,-5A5,5 0 0,1 5,0Z" style="opacity: 0.7; stroke-width: 0px; fill: rgb(0, 128, 0); fill-opacity: 1;"/><path class="point plotly-customdata" transform="translate(430.25,55.81)" d="M5,0A5,5 0 1,1 0,-5A5,5 0 0,1 5,0Z" style="opacity: 0.7; stroke-width: 0px; fill: rgb(0, 128, 0); fill-opacity: 1;"/><path class="point plotly-customdata" transform="translate(454.75,88.31)" d="M5,0A5,5 0 1,1 0,-5A5,5 0 0,1 5,0Z" style="opacity: 0.7; stroke-width: 0px; fill: rgb(0, 128, 0); fill-opacity: 1;"/><path class="point plotly-customdata" transform="translate(479.25,112.69)" d="M5,0A5,5 0 1,1 0,-5A5,5 0 0,1 5,0Z" style="opacity: 0.7; stroke-width: 0px; fill: rgb(0, 128, 0); fill-opacity: 1;"/><path class="point plotly-customdata" transform="translate(503.75,72.06)" d="M5,0A5,5 0 1,1 0,-5A5,5 0 0,1 5,0Z" style="opacity: 0.7; stroke-width: 0px; fill: rgb(0, 128, 0); fill-opacity: 1;"/><path class="point plotly-customdata" transform="translate(528.25,63.93)" d="M5,0A5,5 0 1,1 0,-5A5,5 0 0,1 5,0Z" style="opacity: 0.7; stroke-width: 0px; fill: rgb(0, 128, 0); fill-opacity: 1;"/><path class="point plotly-customdata" transform="translate(552.75,120.82)" d="M5,0A5,5 0 1,1 0,-5A5,5 0 0,1 5,0Z" style="opacity: 0.7; stroke-width: 0px; fill: rgb(0, 128, 0); fill-opacity: 1;"/><path class="point plotly-customdata" transform="translate(577.25,15.18)" d="M5,0A5,5 0 1,1 0,-5A5,5 0 0,1 5,0Z" style="opacity: 0.7; stroke-width: 0px; fill: rgb(255, 0, 0); fill-opacity: 1;"/><path class="point plotly-customdata" transform="translate(601.75,47.68)" d="M5,0A5,5 0 1,1 0,-5A5,5 0 0,1 5,0Z" style="opacity: 0.7; stroke-width: 0px; fill: rgb(0, 128, 0); fill-opacity: 1;"/></g><g class="text"/></g><g class="trace scatter trace458ab6" style="stroke-miterlimit: 2; opacity: 1;"><g class="fills"/><g class="errorbars"/><g class="lines"><path class="js-line" d="M38.25,23.52L601.75,23.52" style="vector-effect: non-scaling-stroke; fill: none; stroke: rgb(0, 0, 0); stroke-opacity: 1; stroke-width: 1px; opacity: 1; stroke-dasharray: 9px, 9px;"/></g><g class="points"/><g class="text"/></g><g class="trace scatter tracecaae86" style="stroke-miterlimit: 2; opacity: 1;"><g class="fills"/><g class="errorbars"/><g class="lines"><path class="js-line" d="M38.25,169.58L601.75,169.58" style="vector-effect: non-scaling-stroke; fill: none; stroke: rgb(0, 0, 0); stroke-opacity: 1; stroke-width: 1px; opacity: 1; stroke-dasharray: 9px, 9px;"/></g><g class="points"/><g class="text"/></g><g class="trace scatter trace29c755" style="stroke-miterlimit: 2; opacity: 1;"><g class="fills"/><g class="errorbars"/><g class="lines"><path class="js-line" d="M38.25,100.5L601.75,100.5" style="vector-effect: non-scaling-stroke; fill: none; stroke: rgb(0, 0, 0); stroke-opacity: 1; stroke-width: 1px; opacity: 1;"/></g><g class="points"/><g class="text"/></g></g></g><g class="overplot"/><path class="xlines-above crisp" d="M79,520.5H720" style="fill: none; stroke-width: 1px; stroke: rgb(36, 36, 36); stroke-opacity: 1;"/><path class="ylines-above crisp" d="M79.5,341.5V520" style="fill: none; stroke-width: 1px; stroke: rgb(36, 36, 36); stroke-opacity: 1;"/><g class="overlines-above"/><g class="xaxislayer-above"><path class="x2tick ticks crisp" d="M0,521v5" transform="translate(93.75,0)" style="stroke: rgb(68, 68, 68); stroke-opacity: 1; stroke-width: 1px;"/><path class="x2tick ticks crisp" d="M0,521v5" transform="translate(216.25,0)" style="stroke: rgb(68, 68, 68); stroke-opacity: 1; stroke-width: 1px;"/><path class="x2tick ticks crisp" d="M0,521v5" transform="translate(338.75,0)" style="stroke: rgb(68, 68, 68); stroke-opacity: 1; stroke-width: 1px;"/><path class="x2tick ticks crisp" d="M0,521v5" transform="translate(461.25,0)" style="stroke: rgb(68, 68, 68); stroke-opacity: 1; stroke-width: 1px;"/><path class="x2tick ticks crisp" d="M0,521v5" transform="translate(583.75,0)" style="stroke: rgb(68, 68, 68); stroke-opacity: 1; stroke-width: 1px;"/><path class="x2tick ticks crisp" d="M0,521v5" transform="translate(706.25,0)" style="stroke: rgb(68, 68, 68); stroke-opacity: 1; stroke-width: 1px;"/><g class="x2tick"><text text-anchor="middle" x="0" y="540.4" transform="translate(93.75,0)" style="font-family: 'Open Sans', verdana, arial, sans-serif; font-size: 12px; fill: rgb(36, 36, 36); fill-opacity: 1; white-space: pre; opacity: 1;">0</text></g><g class="x2tick"><text text-anchor="middle" x="0" y="540.4" style="font-family: 'Open Sans', verdana, arial, sans-serif; font-size: 12px; fill: rgb(36, 36, 36); fill-opacity: 1; white-space: pre; opacity: 1;" transform="translate(216.25,0)">5</text></g><g class="x2tick"><text text-anchor="middle" x="0" y="540.4" style="font-family: 'Open Sans', verdana, arial, sans-serif; font-size: 12px; fill: rgb(36, 36, 36); fill-opacity: 1; white-space: pre; opacity: 1;" transform="translate(338.75,0)">10</text></g><g class="x2tick"><text text-anchor="middle" x="0" y="540.4" style="font-family: 'Open Sans', verdana, arial, sans-serif; font-size: 12px; fill: rgb(36, 36, 36); fill-opacity: 1; white-space: pre; opacity: 1;" transform="translate(461.25,0)">15</text></g><g class="x2tick"><text text-anchor="middle" x="0" y="540.4" style="font-family: 'Open Sans', verdana, arial, sans-serif; font-size: 12px; fill: rgb(36, 36, 36); fill-opacity: 1; white-space: pre; opacity: 1;" transform="translate(583.75,0)">20</text></g><g class="x2tick"><text text-anchor="middle" x="0" y="540.4" style="font-family: 'Open Sans', verdana, arial, sans-serif; font-size: 12px; fill: rgb(36, 36, 36); fill-opacity: 1; white-space: pre; opacity: 1;" transform="translate(706.25,0)">25</text></g></g><g class="yaxislayer-above"><path class="y2tick ticks crisp" d="M79,0h-5" transform="translate(0,511.08000000000004)" style="stroke: rgb(68, 68, 68); stroke-opacity: 1; stroke-width: 1px;"/><path class="y2tick ticks crisp" d="M79,0h-5" transform="translate(0,470.44)" style="stroke: rgb(68, 68, 68); stroke-opacity: 1; stroke-width: 1px;"/><path class="y2tick ticks crisp" d="M79,0h-5" transform="translate(0,429.81)" style="stroke: rgb(68, 68, 68); stroke-opacity: 1; stroke-width: 1px;"/><path class="y2tick ticks crisp" d="M79,0h-5" transform="translate(0,389.18)" style="stroke: rgb(68, 68, 68); stroke-opacity: 1; stroke-width: 1px;"/><path class="y2tick ticks crisp" d="M79,0h-5" transform="translate(0,348.55)" style="stroke: rgb(68, 68, 68); stroke-opacity: 1; stroke-width: 1px;"/><g class="y2tick"><text text-anchor="end" x="71.6" y="4.199999999999999" transform="translate(0,511.08000000000004)" style="font-family: 'Open Sans', verdana, arial, sans-serif; font-size: 12px; fill: rgb(36, 36, 36); fill-opacity: 1; white-space: pre; opacity: 1;">0</text></g><g class="y2tick"><text text-anchor="end" x="71.6" y="4.199999999999999" style="font-family: 'Open Sans', verdana, arial, sans-serif; font-size: 12px; fill: rgb(36, 36, 36); fill-opacity: 1; white-space: pre; opacity: 1;" transform="translate(0,470.44)">5</text></g><g class="y2tick"><text text-anchor="end" x="71.6" y="4.199999999999999" style="font-family: 'Open Sans', verdana, arial, sans-serif; font-size: 12px; fill: rgb(36, 36, 36); fill-opacity: 1; white-space: pre; opacity: 1;" transform="translate(0,429.81)">10</text></g><g class="y2tick"><text text-anchor="end" x="71.6" y="4.199999999999999" style="font-family: 'Open Sans', verdana, arial, sans-serif; font-size: 12px; fill: rgb(36, 36, 36); fill-opacity: 1; white-space: pre; opacity: 1;" transform="translate(0,389.18)">15</text></g><g class="y2tick"><text text-anchor="end" x="71.6" y="4.199999999999999" style="font-family: 'Open Sans', verdana, arial, sans-serif; font-size: 12px; fill: rgb(36, 36, 36); fill-opacity: 1; white-space: pre; opacity: 1;" transform="translate(0,348.55)">20</text></g></g><g class="overaxes-above"/></g></g><g class="polarlayer"/><g class="smithlayer"/><g class="ternarylayer"/><g class="geolayer"/><g class="funnelarealayer"/><g class="pielayer"/><g class="iciclelayer"/><g class="treemaplayer"/><g class="sunburstlayer"/><g class="glimages"/><defs id="topdefs-8d5e22"><g class="clips"/></defs><g class="layer-above"><g class="imagelayer"/><g class="shapelayer"/></g><g class="infolayer"><g class="g-gtitle"><text class="gtitle" x="40" y="50" text-anchor="start" dy="0em" style="font-family: 'Open Sans', verdana, arial, sans-serif; font-size: 17px; fill: rgb(36, 36, 36); opacity: 1; font-weight: normal; white-space: pre;">Water cooling pressure Average and Range chart</text></g><g class="g-xtitle"/><g class="g-x2title"/><g class="g-ytitle"><text class="ytitle" transform="rotate(-90,31.528125000000003,189.25)" x="31.528125000000003" y="189.25" text-anchor="middle" style="font-family: 'Open Sans', verdana, arial, sans-serif; font-size: 14px; fill: rgb(36, 36, 36); opacity: 1; font-weight: normal; white-space: pre;">Subgroup mean</text></g><g class="g-y2title"><text class="y2title" transform="rotate(-90,31.528125000000003,430.75)" x="31.528125000000003" y="430.75" text-anchor="middle" style="font-family: 'Open Sans', verdana, arial, sans-serif; font-size: 14px; fill: rgb(36, 36, 36); opacity: 1; font-weight: normal; white-space: pre;">Subgroup range</text></g></g></svg>